<?xml version="1.0" encoding="UTF-8" standalone="no"?>
<!DOCTYPE svg PUBLIC "-//W3C//DTD SVG 1.1//EN" "http://www.w3.org/Graphics/SVG/1.1/DTD/svg11.dtd">
<svg width="100%" height="100%" viewBox="0 0 1280 505" version="1.1" xmlns="http://www.w3.org/2000/svg" xmlns:xlink="http://www.w3.org/1999/xlink" xml:space="preserve" xmlns:serif="http://www.serif.com/" style="fill-rule:evenodd;clip-rule:evenodd;stroke-linejoin:round;stroke-miterlimit:2;">
    <g transform="matrix(0.970138,0,0,0.970138,-1714.59,-1704.76)">
        <g transform="matrix(4.96962,0,0,4.96962,-9950.2,-1795.83)">
            <g transform="matrix(53.6594,0,0,53.6594,2362.77,819.165)">
                <path d="M0.594,-0.388C0.573,-0.388 0.554,-0.382 0.539,-0.37C0.523,-0.358 0.51,-0.345 0.501,-0.332C0.503,-0.32 0.505,-0.307 0.506,-0.294C0.507,-0.28 0.508,-0.266 0.508,-0.253L0.508,0L0.371,0L0.371,-0.254C0.371,-0.299 0.365,-0.333 0.352,-0.355C0.339,-0.377 0.318,-0.388 0.288,-0.388C0.267,-0.388 0.25,-0.383 0.237,-0.374C0.223,-0.365 0.211,-0.354 0.202,-0.341L0.202,0L0.065,0L0.065,-0.487L0.197,-0.487L0.197,-0.421C0.213,-0.447 0.233,-0.466 0.258,-0.479C0.283,-0.491 0.31,-0.497 0.339,-0.497C0.373,-0.497 0.401,-0.489 0.423,-0.474C0.445,-0.459 0.463,-0.438 0.476,-0.413C0.498,-0.444 0.523,-0.465 0.55,-0.478C0.577,-0.491 0.608,-0.497 0.642,-0.497C0.673,-0.497 0.7,-0.491 0.722,-0.479C0.743,-0.466 0.761,-0.449 0.775,-0.427C0.788,-0.405 0.798,-0.379 0.805,-0.35C0.811,-0.32 0.814,-0.288 0.814,-0.253L0.814,0L0.677,0L0.677,-0.254C0.677,-0.299 0.671,-0.333 0.658,-0.355C0.645,-0.377 0.624,-0.388 0.594,-0.388Z" style="fill:rgb(1,98,153);fill-rule:nonzero;"/>
            </g>
            <g transform="matrix(53.6594,0,0,53.6594,2409.67,819.165)">
                <path d="M0.065,0L0.065,-0.487L0.202,-0.487L0.202,0L0.065,0ZM0.054,-0.629C0.054,-0.651 0.061,-0.67 0.076,-0.685C0.091,-0.7 0.11,-0.708 0.133,-0.708C0.156,-0.708 0.175,-0.7 0.191,-0.685C0.206,-0.67 0.213,-0.651 0.213,-0.629C0.213,-0.608 0.206,-0.589 0.191,-0.574C0.175,-0.558 0.156,-0.55 0.133,-0.55C0.11,-0.55 0.091,-0.558 0.076,-0.574C0.061,-0.589 0.054,-0.608 0.054,-0.629Z" style="fill:none;fill-rule:nonzero;"/>
            </g>
            <g transform="matrix(53.6594,0,0,53.6594,2424,819.165)">
                <path d="M0.405,-0.152C0.405,-0.126 0.4,-0.103 0.389,-0.083C0.378,-0.062 0.364,-0.045 0.345,-0.032C0.326,-0.018 0.304,-0.008 0.279,-0.001C0.254,0.007 0.226,0.01 0.196,0.01C0.171,0.01 0.143,0.007 0.114,0.002C0.084,-0.004 0.058,-0.012 0.036,-0.021L0.056,-0.118C0.077,-0.109 0.099,-0.102 0.122,-0.098C0.145,-0.092 0.168,-0.09 0.191,-0.09C0.214,-0.09 0.233,-0.093 0.248,-0.1C0.263,-0.107 0.27,-0.119 0.27,-0.136C0.27,-0.151 0.263,-0.163 0.248,-0.17C0.233,-0.177 0.214,-0.185 0.19,-0.195C0.171,-0.203 0.152,-0.211 0.134,-0.22C0.116,-0.228 0.1,-0.238 0.087,-0.25C0.073,-0.261 0.062,-0.275 0.054,-0.291C0.045,-0.306 0.041,-0.326 0.041,-0.349C0.041,-0.374 0.046,-0.396 0.056,-0.415C0.065,-0.434 0.079,-0.449 0.096,-0.461C0.113,-0.473 0.132,-0.482 0.156,-0.488C0.179,-0.494 0.203,-0.497 0.23,-0.497C0.258,-0.497 0.285,-0.495 0.311,-0.49C0.336,-0.485 0.361,-0.476 0.385,-0.463L0.364,-0.366C0.345,-0.375 0.325,-0.382 0.304,-0.388C0.283,-0.393 0.261,-0.396 0.24,-0.396C0.221,-0.396 0.205,-0.394 0.194,-0.39C0.182,-0.385 0.176,-0.376 0.176,-0.362C0.176,-0.349 0.183,-0.339 0.197,-0.332C0.211,-0.325 0.228,-0.318 0.247,-0.309C0.261,-0.303 0.277,-0.296 0.296,-0.289C0.314,-0.281 0.331,-0.271 0.347,-0.259C0.363,-0.247 0.377,-0.233 0.388,-0.216C0.399,-0.199 0.405,-0.177 0.405,-0.152Z" style="fill:rgb(1,98,153);fill-rule:nonzero;"/>
            </g>
            <g transform="matrix(53.6594,0,0,53.6594,2447.23,819.165)">
                <path d="M0.065,0L0.065,-0.487L0.202,-0.487L0.202,0L0.065,0ZM0.054,-0.629C0.054,-0.651 0.061,-0.67 0.076,-0.685C0.091,-0.7 0.11,-0.708 0.133,-0.708C0.156,-0.708 0.175,-0.7 0.191,-0.685C0.206,-0.67 0.213,-0.651 0.213,-0.629C0.213,-0.608 0.206,-0.589 0.191,-0.574C0.175,-0.558 0.156,-0.55 0.133,-0.55C0.11,-0.55 0.091,-0.558 0.076,-0.574C0.061,-0.589 0.054,-0.608 0.054,-0.629Z" style="fill:none;fill-rule:nonzero;"/>
            </g>
            <g transform="matrix(53.6594,0,0,53.6594,2461.56,819.165)">
                <path d="M0.065,0L0.065,-0.487L0.197,-0.487L0.197,-0.421C0.213,-0.447 0.233,-0.466 0.258,-0.479C0.283,-0.491 0.31,-0.497 0.339,-0.497C0.37,-0.497 0.397,-0.49 0.42,-0.477C0.442,-0.464 0.46,-0.446 0.474,-0.424C0.488,-0.401 0.498,-0.375 0.505,-0.346C0.512,-0.316 0.515,-0.285 0.515,-0.253L0.515,0L0.378,0L0.378,-0.254C0.378,-0.298 0.371,-0.331 0.358,-0.354C0.344,-0.377 0.321,-0.388 0.29,-0.388C0.27,-0.388 0.253,-0.383 0.238,-0.374C0.223,-0.365 0.211,-0.354 0.202,-0.341L0.202,0L0.065,0Z" style="fill:rgb(1,98,153);fill-rule:nonzero;"/>
            </g>
            <g transform="matrix(53.6594,0,0,53.6594,2492.14,819.165)">
                <path d="M0.099,0L0.099,-0.38L0.02,-0.38L0.02,-0.487L0.099,-0.487L0.099,-0.504C0.099,-0.577 0.117,-0.63 0.154,-0.665C0.19,-0.699 0.238,-0.716 0.299,-0.716C0.314,-0.716 0.33,-0.715 0.345,-0.714C0.36,-0.712 0.374,-0.708 0.388,-0.703L0.38,-0.6C0.372,-0.603 0.363,-0.604 0.354,-0.606C0.344,-0.607 0.334,-0.607 0.325,-0.607C0.294,-0.607 0.272,-0.6 0.257,-0.585C0.242,-0.57 0.235,-0.545 0.235,-0.51L0.235,-0.487L0.354,-0.487L0.354,-0.38L0.235,-0.38L0.235,0L0.099,0Z" style="fill:rgb(1,98,153);fill-rule:nonzero;"/>
            </g>
            <g transform="matrix(53.6594,0,0,53.6594,2511.09,819.165)">
                <path d="M0.535,-0.243C0.535,-0.208 0.53,-0.175 0.519,-0.144C0.507,-0.113 0.491,-0.087 0.47,-0.064C0.449,-0.041 0.423,-0.023 0.392,-0.01C0.361,0.004 0.325,0.01 0.284,0.01C0.243,0.01 0.208,0.004 0.177,-0.01C0.146,-0.023 0.119,-0.041 0.098,-0.064C0.077,-0.087 0.061,-0.113 0.05,-0.144C0.039,-0.175 0.033,-0.208 0.033,-0.243C0.033,-0.278 0.039,-0.311 0.05,-0.342C0.061,-0.373 0.077,-0.4 0.098,-0.423C0.119,-0.446 0.146,-0.464 0.177,-0.477C0.208,-0.49 0.243,-0.497 0.284,-0.497C0.325,-0.497 0.361,-0.49 0.392,-0.477C0.423,-0.464 0.449,-0.446 0.47,-0.423C0.491,-0.4 0.507,-0.373 0.519,-0.342C0.53,-0.311 0.535,-0.278 0.535,-0.243ZM0.398,-0.243C0.398,-0.263 0.396,-0.282 0.392,-0.301C0.388,-0.319 0.382,-0.335 0.373,-0.349C0.364,-0.363 0.352,-0.374 0.337,-0.383C0.322,-0.391 0.305,-0.395 0.284,-0.395C0.263,-0.395 0.245,-0.391 0.231,-0.383C0.216,-0.374 0.204,-0.363 0.196,-0.349C0.187,-0.335 0.18,-0.319 0.176,-0.301C0.172,-0.282 0.17,-0.263 0.17,-0.243C0.17,-0.223 0.172,-0.204 0.176,-0.186C0.18,-0.168 0.187,-0.152 0.196,-0.138C0.204,-0.124 0.216,-0.113 0.231,-0.105C0.245,-0.096 0.263,-0.092 0.284,-0.092C0.305,-0.092 0.322,-0.096 0.337,-0.105C0.352,-0.113 0.364,-0.124 0.373,-0.138C0.382,-0.152 0.388,-0.168 0.392,-0.186C0.396,-0.204 0.398,-0.223 0.398,-0.243Z" style="fill:rgb(1,98,153);fill-rule:nonzero;"/>
            </g>
            <g transform="matrix(53.6594,0,0,53.6594,2541.56,819.165)">
                <path d="M0.405,-0.152C0.405,-0.126 0.4,-0.103 0.389,-0.083C0.378,-0.062 0.364,-0.045 0.345,-0.032C0.326,-0.018 0.304,-0.008 0.279,-0.001C0.254,0.007 0.226,0.01 0.196,0.01C0.171,0.01 0.143,0.007 0.114,0.002C0.084,-0.004 0.058,-0.012 0.036,-0.021L0.056,-0.118C0.077,-0.109 0.099,-0.102 0.122,-0.098C0.145,-0.092 0.168,-0.09 0.191,-0.09C0.214,-0.09 0.233,-0.093 0.248,-0.1C0.263,-0.107 0.27,-0.119 0.27,-0.136C0.27,-0.151 0.263,-0.163 0.248,-0.17C0.233,-0.177 0.214,-0.185 0.19,-0.195C0.171,-0.203 0.152,-0.211 0.134,-0.22C0.116,-0.228 0.1,-0.238 0.087,-0.25C0.073,-0.261 0.062,-0.275 0.054,-0.291C0.045,-0.306 0.041,-0.326 0.041,-0.349C0.041,-0.374 0.046,-0.396 0.056,-0.415C0.065,-0.434 0.079,-0.449 0.096,-0.461C0.113,-0.473 0.132,-0.482 0.156,-0.488C0.179,-0.494 0.203,-0.497 0.23,-0.497C0.258,-0.497 0.285,-0.495 0.311,-0.49C0.336,-0.485 0.361,-0.476 0.385,-0.463L0.364,-0.366C0.345,-0.375 0.325,-0.382 0.304,-0.388C0.283,-0.393 0.261,-0.396 0.24,-0.396C0.221,-0.396 0.205,-0.394 0.194,-0.39C0.182,-0.385 0.176,-0.376 0.176,-0.362C0.176,-0.349 0.183,-0.339 0.197,-0.332C0.211,-0.325 0.228,-0.318 0.247,-0.309C0.261,-0.303 0.277,-0.296 0.296,-0.289C0.314,-0.281 0.331,-0.271 0.347,-0.259C0.363,-0.247 0.377,-0.233 0.388,-0.216C0.399,-0.199 0.405,-0.177 0.405,-0.152Z" style="fill:rgb(1,98,153);fill-rule:nonzero;"/>
            </g>
            <g transform="matrix(53.6594,0,0,53.6594,2564.8,819.165)">
                <path d="M0.273,-0.497C0.305,-0.497 0.333,-0.492 0.359,-0.482C0.384,-0.472 0.404,-0.458 0.421,-0.44C0.438,-0.421 0.45,-0.399 0.459,-0.374C0.468,-0.348 0.472,-0.319 0.472,-0.287C0.472,-0.274 0.471,-0.26 0.47,-0.247C0.468,-0.233 0.465,-0.22 0.462,-0.209L0.173,-0.209C0.174,-0.173 0.185,-0.144 0.206,-0.123C0.227,-0.102 0.26,-0.091 0.305,-0.091C0.331,-0.091 0.356,-0.093 0.381,-0.099C0.406,-0.103 0.428,-0.111 0.447,-0.12L0.464,-0.027C0.44,-0.015 0.413,-0.006 0.382,0.001C0.351,0.007 0.32,0.01 0.287,0.01C0.246,0.01 0.21,0.004 0.179,-0.008C0.148,-0.02 0.121,-0.037 0.1,-0.059C0.078,-0.081 0.061,-0.108 0.05,-0.139C0.039,-0.169 0.033,-0.204 0.033,-0.241C0.033,-0.279 0.039,-0.314 0.05,-0.346C0.061,-0.377 0.076,-0.404 0.097,-0.427C0.118,-0.449 0.143,-0.466 0.173,-0.479C0.202,-0.491 0.236,-0.497 0.273,-0.497ZM0.265,-0.405C0.237,-0.405 0.216,-0.395 0.201,-0.376C0.186,-0.356 0.177,-0.331 0.174,-0.301L0.341,-0.301C0.344,-0.332 0.34,-0.358 0.327,-0.377C0.314,-0.396 0.294,-0.405 0.265,-0.405Z" style="fill:rgb(1,98,153);fill-rule:nonzero;"/>
            </g>
            <g transform="matrix(53.6594,0,0,53.6594,2592,819.165)">
                <path d="M0.288,-0.497C0.312,-0.497 0.337,-0.495 0.363,-0.49C0.388,-0.485 0.41,-0.477 0.427,-0.468L0.412,-0.37C0.381,-0.384 0.346,-0.391 0.308,-0.391C0.26,-0.391 0.225,-0.378 0.202,-0.352C0.179,-0.325 0.168,-0.289 0.168,-0.244C0.168,-0.199 0.179,-0.163 0.202,-0.136C0.225,-0.109 0.26,-0.096 0.308,-0.096C0.346,-0.096 0.381,-0.103 0.412,-0.117L0.427,-0.019C0.41,-0.01 0.388,-0.003 0.363,0.003C0.337,0.008 0.312,0.01 0.288,0.01C0.246,0.01 0.209,0.004 0.177,-0.01C0.145,-0.023 0.118,-0.04 0.097,-0.063C0.075,-0.086 0.058,-0.113 0.048,-0.144C0.037,-0.175 0.031,-0.208 0.031,-0.244C0.031,-0.28 0.037,-0.314 0.048,-0.345C0.058,-0.376 0.075,-0.402 0.097,-0.425C0.118,-0.447 0.145,-0.464 0.177,-0.478C0.209,-0.491 0.246,-0.497 0.288,-0.497Z" style="fill:rgb(1,98,153);fill-rule:nonzero;"/>
            </g>
        </g>
        <g transform="matrix(1,0,0,1,2203.46,2227.98)">
            <g transform="matrix(266.667,0,0,266.667,0,0)">
                <path d="M0.236,-0.03L0.236,0.177L0.092,0.177L0.092,-0.03L0.124,-0.279L0.204,-0.279L0.236,-0.03ZM0.085,-0.417C0.085,-0.438 0.092,-0.457 0.106,-0.473C0.119,-0.489 0.139,-0.497 0.164,-0.497C0.189,-0.497 0.209,-0.489 0.223,-0.473C0.236,-0.457 0.243,-0.438 0.243,-0.417C0.243,-0.396 0.236,-0.377 0.223,-0.362C0.209,-0.346 0.189,-0.338 0.164,-0.338C0.139,-0.338 0.119,-0.346 0.106,-0.362C0.092,-0.377 0.085,-0.396 0.085,-0.417Z" style="fill:rgb(1,98,153);fill-rule:nonzero;"/>
            </g>
        </g>
        <g transform="matrix(1,0,0,1,2016.72,2227.98)">
            <g transform="matrix(266.667,0,0,266.667,0,0)">
                <path d="M0.236,-0.03L0.236,0.177L0.092,0.177L0.092,-0.03L0.124,-0.279L0.204,-0.279L0.236,-0.03ZM0.085,-0.417C0.085,-0.438 0.092,-0.457 0.106,-0.473C0.119,-0.489 0.139,-0.497 0.164,-0.497C0.189,-0.497 0.209,-0.489 0.223,-0.473C0.236,-0.457 0.243,-0.438 0.243,-0.417C0.243,-0.396 0.236,-0.377 0.223,-0.362C0.209,-0.346 0.189,-0.338 0.164,-0.338C0.139,-0.338 0.119,-0.346 0.106,-0.362C0.092,-0.377 0.085,-0.396 0.085,-0.417Z" style="fill:rgb(1,98,153);fill-rule:nonzero;"/>
            </g>
        </g>
    </g>
    <g transform="matrix(4.82121,0,0,4.82121,-11399.7,-3658.62)">
        <g transform="matrix(90.5502,0,0,90.5502,2362.77,819.165)">
            <path d="M0.677,0L0.532,0L0.485,-0.14L0.211,-0.14L0.164,0L0.019,0L0.272,-0.666L0.424,-0.666L0.677,0ZM0.348,-0.554L0.248,-0.251L0.448,-0.251L0.348,-0.554Z" style="fill:rgb(198,65,40);fill-rule:nonzero;"/>
        </g>
        <g transform="matrix(90.5502,0,0,90.5502,2425.79,819.165)">
            <path d="M0.631,-0.666L0.757,-0.666L0.806,0L0.669,0L0.646,-0.414L0.499,-0.112L0.355,-0.112L0.208,-0.414L0.185,0L0.048,0L0.097,-0.666L0.223,-0.666L0.427,-0.236L0.631,-0.666Z" style="fill:rgb(198,65,40);fill-rule:nonzero;"/>
        </g>
        <g transform="matrix(90.5502,0,0,90.5502,2503.12,819.165)">
            <path d="M0.204,-0.21L0.124,-0.21L0.092,-0.459L0.092,-0.666L0.236,-0.666L0.236,-0.459L0.204,-0.21ZM0.085,-0.072C0.085,-0.093 0.092,-0.112 0.106,-0.128C0.119,-0.143 0.139,-0.151 0.164,-0.151C0.189,-0.151 0.209,-0.143 0.223,-0.128C0.236,-0.112 0.243,-0.093 0.243,-0.072C0.243,-0.051 0.236,-0.032 0.223,-0.016C0.209,0 0.189,0.008 0.164,0.008C0.139,0.008 0.119,0 0.106,-0.016C0.092,-0.032 0.085,-0.051 0.085,-0.072Z" style="fill:rgb(198,65,40);fill-rule:nonzero;"/>
        </g>
        <g transform="matrix(90.5502,0,0,90.5502,2532.82,819.165)">
            <path d="M0.527,-0.666L0.527,-0.554L0.343,-0.554L0.343,0L0.203,0L0.203,-0.554L0.019,-0.554L0.019,-0.666L0.527,-0.666Z" style="fill:rgb(198,65,40);fill-rule:nonzero;"/>
        </g>
        <g transform="matrix(90.5502,0,0,90.5502,2582.27,819.165)">
            <path d="M0.527,-0.666L0.527,-0.554L0.343,-0.554L0.343,0L0.203,0L0.203,-0.554L0.019,-0.554L0.019,-0.666L0.527,-0.666Z" style="fill:rgb(198,65,40);fill-rule:nonzero;"/>
        </g>
    </g>
</svg>
